<svg width="176" height="40" viewBox="0 0 176 40" fill="none" xmlns="http://www.w3.org/2000/svg">
<path d="M0.5 6C0.5 2.68629 3.18629 0 6.5 0H175.5V34C175.5 37.3137 172.814 40 169.5 40H0.5V6Z" fill="#F97316"/>
<path d="M19.1506 14.5455V17.2727H9.61648V14.5455H19.1506ZM12.1733 10.3636H15.571V26.875C15.571 27.5341 15.6695 28.0303 15.8665 28.3636C16.0634 28.6894 16.3172 28.9129 16.6278 29.0341C16.946 29.1477 17.2907 29.2045 17.6619 29.2045C17.9347 29.2045 18.1733 29.1856 18.3778 29.1477C18.5824 29.1098 18.7415 29.0795 18.8551 29.0568L19.4688 31.8636C19.2718 31.9394 18.9915 32.0152 18.6278 32.0909C18.2642 32.1742 17.8097 32.2197 17.2642 32.2273C16.3703 32.2424 15.5369 32.0833 14.7642 31.75C13.9915 31.4167 13.3665 30.9015 12.8892 30.2045C12.4119 29.5076 12.1733 28.6326 12.1733 27.5795V10.3636ZM22.9091 32V14.5455H26.3068V32H22.9091ZM24.625 11.8523C24.0341 11.8523 23.5265 11.6553 23.1023 11.2614C22.6856 10.8598 22.4773 10.3826 22.4773 9.82954C22.4773 9.26894 22.6856 8.79167 23.1023 8.39773C23.5265 7.99621 24.0341 7.79545 24.625 7.79545C25.2159 7.79545 25.7197 7.99621 26.1364 8.39773C26.5606 8.79167 26.7727 9.26894 26.7727 9.82954C26.7727 10.3826 26.5606 10.8598 26.1364 11.2614C25.7197 11.6553 25.2159 11.8523 24.625 11.8523ZM38.2301 32.3523C36.5407 32.3523 35.0862 31.9697 33.8665 31.2045C32.6544 30.4318 31.7225 29.3674 31.071 28.0114C30.4195 26.6553 30.0938 25.1023 30.0938 23.3523C30.0938 21.5795 30.4271 20.0152 31.0938 18.6591C31.7604 17.2955 32.6998 16.2311 33.9119 15.4659C35.1241 14.7008 36.5521 14.3182 38.196 14.3182C39.5218 14.3182 40.7036 14.5644 41.7415 15.0568C42.7794 15.5417 43.6165 16.2235 44.2528 17.1023C44.8968 17.9811 45.2794 19.0076 45.4006 20.1818H42.0938C41.9119 19.3636 41.4953 18.6591 40.8438 18.0682C40.1998 17.4773 39.3362 17.1818 38.2528 17.1818C37.3059 17.1818 36.4763 17.4318 35.7642 17.9318C35.0597 18.4242 34.5104 19.1288 34.1165 20.0455C33.7225 20.9545 33.5256 22.0303 33.5256 23.2727C33.5256 24.5455 33.7188 25.6439 34.1051 26.5682C34.4915 27.4924 35.0369 28.2083 35.7415 28.7159C36.4536 29.2235 37.2907 29.4773 38.2528 29.4773C38.8968 29.4773 39.4801 29.3598 40.0028 29.125C40.5331 28.8826 40.9763 28.5379 41.3324 28.0909C41.696 27.6439 41.9498 27.1061 42.0938 26.4773H45.4006C45.2794 27.6061 44.9119 28.6136 44.2983 29.5C43.6847 30.3864 42.8627 31.0833 41.8324 31.5909C40.8097 32.0985 39.6089 32.3523 38.2301 32.3523ZM52.1591 26.0795L52.1364 21.9318H52.7273L59.6818 14.5455H63.75L55.8182 22.9545H55.2841L52.1591 26.0795ZM49.0341 32V8.72727H52.4318V32H49.0341ZM60.0568 32L53.8068 23.7045L56.1477 21.3295L64.2273 32H60.0568ZM73.6506 32.3523C71.9309 32.3523 70.4498 31.9848 69.2074 31.25C67.9725 30.5076 67.018 29.4659 66.3438 28.125C65.6771 26.7765 65.3438 25.197 65.3438 23.3864C65.3438 21.5985 65.6771 20.0227 66.3438 18.6591C67.018 17.2955 67.9574 16.2311 69.1619 15.4659C70.3741 14.7008 71.7907 14.3182 73.4119 14.3182C74.3968 14.3182 75.3513 14.4811 76.2756 14.8068C77.1998 15.1326 78.0294 15.6439 78.7642 16.3409C79.4991 17.0379 80.0786 17.9432 80.5028 19.0568C80.9271 20.1629 81.1392 21.5076 81.1392 23.0909V24.2955H67.2642V21.75H77.8097C77.8097 20.8561 77.6278 20.0644 77.2642 19.375C76.9006 18.678 76.3892 18.1288 75.7301 17.7273C75.0786 17.3258 74.3134 17.125 73.4347 17.125C72.4801 17.125 71.6468 17.3598 70.9347 17.8295C70.2301 18.2917 69.6847 18.8977 69.2983 19.6477C68.9195 20.3902 68.7301 21.197 68.7301 22.0682V24.0568C68.7301 25.2235 68.9347 26.2159 69.3438 27.0341C69.7604 27.8523 70.34 28.4773 71.0824 28.9091C71.8248 29.3333 72.6922 29.5455 73.6847 29.5455C74.3286 29.5455 74.9157 29.4545 75.446 29.2727C75.9763 29.0833 76.4347 28.803 76.821 28.4318C77.2074 28.0606 77.5028 27.6023 77.7074 27.0568L80.9233 27.6364C80.6657 28.5833 80.2036 29.4129 79.5369 30.125C78.8778 30.8295 78.0483 31.3788 77.0483 31.7727C76.0559 32.1591 74.9233 32.3523 73.6506 32.3523ZM93.0568 14.5455V17.2727H83.5227V14.5455H93.0568ZM86.0795 10.3636H89.4773V26.875C89.4773 27.5341 89.5758 28.0303 89.7727 28.3636C89.9697 28.6894 90.2235 28.9129 90.5341 29.0341C90.8523 29.1477 91.197 29.2045 91.5682 29.2045C91.8409 29.2045 92.0795 29.1856 92.2841 29.1477C92.4886 29.1098 92.6477 29.0795 92.7614 29.0568L93.375 31.8636C93.178 31.9394 92.8977 32.0152 92.5341 32.0909C92.1705 32.1742 91.7159 32.2197 91.1705 32.2273C90.2765 32.2424 89.4432 32.0833 88.6705 31.75C87.8977 31.4167 87.2727 30.9015 86.7955 30.2045C86.3182 29.5076 86.0795 28.6326 86.0795 27.5795V10.3636ZM104.151 32.3523C102.431 32.3523 100.95 31.9848 99.7074 31.25C98.4725 30.5076 97.518 29.4659 96.8438 28.125C96.1771 26.7765 95.8438 25.197 95.8438 23.3864C95.8438 21.5985 96.1771 20.0227 96.8438 18.6591C97.518 17.2955 98.4574 16.2311 99.6619 15.4659C100.874 14.7008 102.291 14.3182 103.912 14.3182C104.897 14.3182 105.851 14.4811 106.776 14.8068C107.7 15.1326 108.529 15.6439 109.264 16.3409C109.999 17.0379 110.579 17.9432 111.003 19.0568C111.427 20.1629 111.639 21.5076 111.639 23.0909V24.2955H97.7642V21.75H108.31C108.31 20.8561 108.128 20.0644 107.764 19.375C107.401 18.678 106.889 18.1288 106.23 17.7273C105.579 17.3258 104.813 17.125 103.935 17.125C102.98 17.125 102.147 17.3598 101.435 17.8295C100.73 18.2917 100.185 18.8977 99.7983 19.6477C99.4195 20.3902 99.2301 21.197 99.2301 22.0682V24.0568C99.2301 25.2235 99.4347 26.2159 99.8438 27.0341C100.26 27.8523 100.84 28.4773 101.582 28.9091C102.325 29.3333 103.192 29.5455 104.185 29.5455C104.829 29.5455 105.416 29.4545 105.946 29.2727C106.476 29.0833 106.935 28.803 107.321 28.4318C107.707 28.0606 108.003 27.6023 108.207 27.0568L111.423 27.6364C111.166 28.5833 110.704 29.4129 110.037 30.125C109.378 30.8295 108.548 31.3788 107.548 31.7727C106.556 32.1591 105.423 32.3523 104.151 32.3523ZM120.489 32.3864C119.383 32.3864 118.383 32.1818 117.489 31.7727C116.595 31.3561 115.886 30.7538 115.364 29.9659C114.848 29.178 114.591 28.2121 114.591 27.0682C114.591 26.0833 114.78 25.2727 115.159 24.6364C115.538 24 116.049 23.4962 116.693 23.125C117.337 22.7538 118.057 22.4735 118.852 22.2841C119.648 22.0947 120.458 21.9508 121.284 21.8523C122.33 21.7311 123.178 21.6326 123.83 21.5568C124.481 21.4735 124.955 21.3409 125.25 21.1591C125.545 20.9773 125.693 20.6818 125.693 20.2727V20.1932C125.693 19.2008 125.413 18.4318 124.852 17.8864C124.299 17.3409 123.473 17.0682 122.375 17.0682C121.231 17.0682 120.33 17.322 119.67 17.8295C119.019 18.3295 118.568 18.8864 118.318 19.5L115.125 18.7727C115.504 17.7121 116.057 16.8561 116.784 16.2045C117.519 15.5455 118.364 15.0682 119.318 14.7727C120.273 14.4697 121.277 14.3182 122.33 14.3182C123.027 14.3182 123.765 14.4015 124.545 14.5682C125.333 14.7273 126.068 15.0227 126.75 15.4545C127.439 15.8864 128.004 16.5038 128.443 17.3068C128.883 18.1023 129.102 19.1364 129.102 20.4091V32H125.784V29.6136H125.648C125.428 30.053 125.098 30.4848 124.659 30.9091C124.22 31.3333 123.655 31.6856 122.966 31.9659C122.277 32.2462 121.451 32.3864 120.489 32.3864ZM121.227 29.6591C122.167 29.6591 122.97 29.4735 123.636 29.1023C124.311 28.7311 124.822 28.2462 125.17 27.6477C125.527 27.0417 125.705 26.3939 125.705 25.7045V23.4545C125.583 23.5758 125.348 23.6894 125 23.7955C124.659 23.8939 124.269 23.9811 123.83 24.0568C123.39 24.125 122.962 24.1894 122.545 24.25C122.129 24.303 121.78 24.3485 121.5 24.3864C120.841 24.4697 120.239 24.6098 119.693 24.8068C119.155 25.0038 118.723 25.2879 118.398 25.6591C118.08 26.0227 117.92 26.5076 117.92 27.1136C117.92 27.9545 118.231 28.5909 118.852 29.0227C119.473 29.447 120.265 29.6591 121.227 29.6591ZM146.707 18.8068L143.628 19.3523C143.499 18.9583 143.295 18.5833 143.014 18.2273C142.741 17.8712 142.37 17.5795 141.901 17.3523C141.431 17.125 140.844 17.0114 140.139 17.0114C139.177 17.0114 138.374 17.2273 137.73 17.6591C137.086 18.0833 136.764 18.6326 136.764 19.3068C136.764 19.8902 136.98 20.3598 137.412 20.7159C137.844 21.072 138.541 21.3636 139.503 21.5909L142.276 22.2273C143.882 22.5985 145.079 23.1705 145.866 23.9432C146.654 24.7159 147.048 25.7197 147.048 26.9545C147.048 28 146.745 28.9318 146.139 29.75C145.541 30.5606 144.704 31.197 143.628 31.6591C142.56 32.1212 141.321 32.3523 139.912 32.3523C137.957 32.3523 136.363 31.9356 135.128 31.1023C133.893 30.2614 133.135 29.0682 132.855 27.5227L136.139 27.0227C136.344 27.8788 136.764 28.5265 137.401 28.9659C138.037 29.3977 138.866 29.6136 139.889 29.6136C141.003 29.6136 141.893 29.3826 142.56 28.9205C143.226 28.4508 143.56 27.8788 143.56 27.2045C143.56 26.6591 143.355 26.2008 142.946 25.8295C142.545 25.4583 141.927 25.178 141.094 24.9886L138.139 24.3409C136.51 23.9697 135.306 23.3788 134.526 22.5682C133.753 21.7576 133.366 20.7311 133.366 19.4886C133.366 18.4583 133.654 17.5568 134.23 16.7841C134.806 16.0114 135.601 15.4091 136.616 14.9773C137.632 14.5379 138.795 14.3182 140.105 14.3182C141.991 14.3182 143.476 14.7273 144.56 15.5455C145.643 16.3561 146.359 17.4432 146.707 18.8068ZM158.307 32.3523C156.587 32.3523 155.106 31.9848 153.864 31.25C152.629 30.5076 151.674 29.4659 151 28.125C150.333 26.7765 150 25.197 150 23.3864C150 21.5985 150.333 20.0227 151 18.6591C151.674 17.2955 152.614 16.2311 153.818 15.4659C155.03 14.7008 156.447 14.3182 158.068 14.3182C159.053 14.3182 160.008 14.4811 160.932 14.8068C161.856 15.1326 162.686 15.6439 163.42 16.3409C164.155 17.0379 164.735 17.9432 165.159 19.0568C165.583 20.1629 165.795 21.5076 165.795 23.0909V24.2955H151.92V21.75H162.466C162.466 20.8561 162.284 20.0644 161.92 19.375C161.557 18.678 161.045 18.1288 160.386 17.7273C159.735 17.3258 158.97 17.125 158.091 17.125C157.136 17.125 156.303 17.3598 155.591 17.8295C154.886 18.2917 154.341 18.8977 153.955 19.6477C153.576 20.3902 153.386 21.197 153.386 22.0682V24.0568C153.386 25.2235 153.591 26.2159 154 27.0341C154.417 27.8523 154.996 28.4773 155.739 28.9091C156.481 29.3333 157.348 29.5455 158.341 29.5455C158.985 29.5455 159.572 29.4545 160.102 29.2727C160.633 29.0833 161.091 28.803 161.477 28.4318C161.864 28.0606 162.159 27.6023 162.364 27.0568L165.58 27.6364C165.322 28.5833 164.86 29.4129 164.193 30.125C163.534 30.8295 162.705 31.3788 161.705 31.7727C160.712 32.1591 159.58 32.3523 158.307 32.3523Z" fill="white"/>
</svg>
